<svg version="1.1" id="Layer_1" xmlns="http://www.w3.org/2000/svg" xmlns:xlink="http://www.w3.org/1999/xlink" x="0px" y="0px"
	 width="100%" viewBox="0 0 672 772" enable-background="new 0 0 672 772" xml:space="preserve">
<path fill="#437EA6" opacity="1.000000" stroke="none" 
	d="
M1.000000,281.000000 
	C1.000000,187.333328 1.000000,94.166664 1.000000,1.000000 
	C225.000000,1.000000 449.000000,1.000000 673.000000,1.000000 
	C673.000000,258.333344 673.000000,515.666687 673.000000,773.000000 
	C449.000000,773.000000 225.000000,773.000000 1.000000,773.000000 
	C1.000000,609.166687 1.000000,445.333344 1.000000,281.000000 
M461.494263,683.000000 
	C447.451233,683.175720 433.506714,682.623291 420.148010,677.567200 
	C404.725372,671.729797 393.047272,662.249084 390.981720,644.851807 
	C388.907745,627.383850 386.400879,609.812744 386.362579,592.281799 
	C386.011047,431.465607 386.155640,270.648407 386.155640,109.831482 
	C386.155640,108.050133 386.155640,106.268784 386.155640,104.275314 
	C388.014099,104.160530 389.311615,104.010994 390.609222,104.010429 
	C420.272858,103.997452 449.937439,103.872696 479.599548,104.086052 
	C487.564819,104.143341 495.584320,104.806366 503.473633,105.930435 
	C546.741028,112.095146 574.213501,136.486145 585.631287,178.570511 
	C588.704163,189.896454 590.318237,201.618149 592.668945,213.496552 
	C598.095703,213.496552 603.661804,213.496552 609.756958,213.496552 
	C607.406738,163.580841 605.071411,113.982155 602.730713,64.269455 
	C429.419922,64.269455 256.680725,64.269455 83.614876,64.269455 
	C81.072670,114.131989 78.543343,163.741852 76.023415,213.167389 
	C76.949860,213.507553 77.251999,213.711914 77.556961,213.716232 
	C81.221504,213.767975 84.906998,213.558853 88.545822,213.881851 
	C92.579498,214.239899 93.736145,212.863937 94.156952,208.713242 
	C96.845619,182.193192 103.391068,156.998840 121.273361,136.124771 
	C133.378067,121.994888 147.699768,111.058250 166.495331,107.986275 
	C178.602997,106.007370 190.916397,104.560120 203.165833,104.320908 
	C232.150925,103.754898 261.152863,104.051682 290.148010,104.000320 
	C291.934753,103.997154 293.721497,103.999908 296.000061,103.999908 
	C296.000061,106.275932 296.000061,108.062393 296.000061,109.848854 
	C296.000061,270.665771 296.080811,431.482819 295.867706,592.299438 
	C295.847717,607.398682 294.393494,622.538147 292.854797,637.582214 
	C291.019196,655.528625 281.675049,668.482117 265.050842,676.015442 
	C253.123337,681.420349 240.506897,682.903687 227.616623,682.991516 
	C220.660492,683.038879 213.703781,682.999939 206.610077,682.999939 
	C206.610077,689.035706 206.610077,694.553589 206.610077,700.043579 
	C296.581543,700.043579 386.122009,700.043579 475.694153,700.043579 
	C475.694153,694.203186 475.694153,688.791504 475.694153,683.000000 
	C471.094452,683.000000 466.792206,683.000000 461.494263,683.000000 
z"/>
<path fill="#FFFFFF" opacity="1.000000" stroke="none" 
	d="
M461.992126,683.000000 
	C466.792206,683.000000 471.094452,683.000000 475.694153,683.000000 
	C475.694153,688.791504 475.694153,694.203186 475.694153,700.043579 
	C386.122009,700.043579 296.581543,700.043579 206.610077,700.043579 
	C206.610077,694.553589 206.610077,689.035706 206.610077,682.999939 
	C213.703781,682.999939 220.660492,683.038879 227.616623,682.991516 
	C240.506897,682.903687 253.123337,681.420349 265.050842,676.015442 
	C281.675049,668.482117 291.019196,655.528625 292.854797,637.582214 
	C294.393494,622.538147 295.847717,607.398682 295.867706,592.299438 
	C296.080811,431.482819 296.000061,270.665771 296.000061,109.848854 
	C296.000061,108.062393 296.000061,106.275932 296.000061,103.999908 
	C293.721497,103.999908 291.934753,103.997154 290.148010,104.000320 
	C261.152863,104.051682 232.150925,103.754898 203.165833,104.320908 
	C190.916397,104.560120 178.602997,106.007370 166.495331,107.986275 
	C147.699768,111.058250 133.378067,121.994888 121.273361,136.124771 
	C103.391068,156.998840 96.845619,182.193192 94.156952,208.713242 
	C93.736145,212.863937 92.579498,214.239899 88.545822,213.881851 
	C84.906998,213.558853 81.221504,213.767975 77.556961,213.716232 
	C77.251999,213.711914 76.949860,213.507553 76.023415,213.167389 
	C78.543343,163.741852 81.072670,114.131989 83.614876,64.269455 
	C256.680725,64.269455 429.419922,64.269455 602.730713,64.269455 
	C605.071411,113.982155 607.406738,163.580841 609.756958,213.496552 
	C603.661804,213.496552 598.095703,213.496552 592.668945,213.496552 
	C590.318237,201.618149 588.704163,189.896454 585.631287,178.570511 
	C574.213501,136.486145 546.741028,112.095146 503.473633,105.930435 
	C495.584320,104.806366 487.564819,104.143341 479.599548,104.086052 
	C449.937439,103.872696 420.272858,103.997452 390.609222,104.010429 
	C389.311615,104.010994 388.014099,104.160530 386.155640,104.275314 
	C386.155640,106.268784 386.155640,108.050133 386.155640,109.831482 
	C386.155640,270.648407 386.011047,431.465607 386.362579,592.281799 
	C386.400879,609.812744 388.907745,627.383850 390.981720,644.851807 
	C393.047272,662.249084 404.725372,671.729797 420.148010,677.567200 
	C433.506714,682.623291 447.451233,683.175720 461.992126,683.000000 
z"/>
</svg>