<svg xmlns="http://www.w3.org/2000/svg" width="32" height="32" viewBox="0 0 32 32" fill="none">
  <!-- Background with gradient -->
  <rect width="32" height="32" rx="6" fill="url(#bgGradient)"/>
  
  <!-- Grid pattern overlay for tech feel -->
  <defs>
    <linearGradient id="bgGradient" x1="0%" y1="0%" x2="100%" y2="100%">
      <stop offset="0%" style="stop-color:#1e40af;stop-opacity:1" />
      <stop offset="50%" style="stop-color:#3b82f6;stop-opacity:1" />
      <stop offset="100%" style="stop-color:#1d4ed8;stop-opacity:1" />
    </linearGradient>
    
    <linearGradient id="letterGradient" x1="0%" y1="0%" x2="100%" y2="100%">
      <stop offset="0%" style="stop-color:#ffffff;stop-opacity:1" />
      <stop offset="100%" style="stop-color:#e5e7eb;stop-opacity:1" />
    </linearGradient>
    
    <pattern id="gridPattern" x="0" y="0" width="4" height="4" patternUnits="userSpaceOnUse">
      <rect width="4" height="4" fill="none"/>
      <path d="M 4 0 L 0 0 0 4" fill="none" stroke="#ffffff" stroke-width="0.2" opacity="0.1"/>
    </pattern>
  </defs>
  
  <!-- Grid overlay -->
  <rect width="32" height="32" fill="url(#gridPattern)" opacity="0.3"/>
  
  <!-- Circuit traces for tech aesthetic -->
  <g opacity="0.15" stroke="#ffffff" stroke-width="0.5" fill="none">
    <path d="M2,8 L6,8 L6,12 L10,12"/>
    <path d="M26,4 L22,4 L22,8 L18,8"/>
    <path d="M4,24 L8,24 L8,20 L12,20"/>
    <path d="M28,20 L24,20 L24,24 L20,24"/>
    <circle cx="6" cy="8" r="0.5" fill="#ffffff"/>
    <circle cx="22" cy="8" r="0.5" fill="#ffffff"/>
    <circle cx="8" cy="20" r="0.5" fill="#ffffff"/>
    <circle cx="24" cy="20" r="0.5" fill="#ffffff"/>
  </g>
  
  <!-- Main "T" letter -->
  <g fill="url(#letterGradient)">
    <!-- Horizontal bar of T -->
    <rect x="8" y="8" width="16" height="3" rx="1.5"/>
    
    <!-- Vertical bar of T -->
    <rect x="14.5" y="8" width="3" height="16" rx="1.5"/>
    
    <!-- Subtle tech accent -->
    <rect x="15" y="20" width="2" height="2" rx="1" fill="#60a5fa" opacity="0.8"/>
  </g>
  
  <!-- Subtle glow effect -->
  <rect width="32" height="32" rx="6" fill="none" stroke="url(#letterGradient)" stroke-width="0.5" opacity="0.3"/>
</svg>
